<svg width="206" height="160" viewBox="0 0 206 160" fill="none" xmlns="http://www.w3.org/2000/svg">
<path d="M206 5C206 2.23858 203.761 0 201 0H5C2.23857 0 0 2.23858 0 5V133.388C0 135.942 1.92598 138.086 4.46616 138.359L200.466 159.406C203.422 159.723 206 157.407 206 154.434V5Z" fill="white"/>
<path d="M201.5 11C201.5 8.51472 199.485 6.5 197 6.5H9C6.51471 6.5 4.5 8.51472 4.5 11V131.638C4.5 133.949 6.25134 135.885 8.55138 136.115L196.551 154.952C199.201 155.217 201.5 153.137 201.5 150.474V11Z" stroke="#322C23" stroke-opacity="0.6"/>
</svg>
