<svg width="48" height="48" viewBox="0 0 48 48" fill="none" xmlns="http://www.w3.org/2000/svg">
<path fill-rule="evenodd" clip-rule="evenodd" d="M11.8545 12.0222V23.8467L23.6238 17.9332L11.8545 12.0222Z" fill="#FAA819"/>
<path fill-rule="evenodd" clip-rule="evenodd" d="M0 17.9332L11.7718 23.8467V12.0222L0 17.9332Z" fill="#FCB415"/>
<path fill-rule="evenodd" clip-rule="evenodd" d="M0 18.0171V29.8416L11.7718 23.9306L0 18.0171Z" fill="#FAA819"/>
<path fill-rule="evenodd" clip-rule="evenodd" d="M0 29.9261L11.7718 35.8397V24.0151L0 29.9261Z" fill="#FCB415"/>
<path fill-rule="evenodd" clip-rule="evenodd" d="M11.8545 24.0151V35.8397L23.6238 29.9261L11.8545 24.0151Z" fill="#FAA819"/>
<path fill-rule="evenodd" clip-rule="evenodd" d="M11.8545 35.9245L23.6238 41.8355V30.011L11.8545 35.9245Z" fill="#FCB415"/>
<path fill-rule="evenodd" clip-rule="evenodd" d="M23.71 30.011V41.8355L35.4792 35.9245L23.71 30.011Z" fill="#FAA819"/>
<path fill-rule="evenodd" clip-rule="evenodd" d="M23.71 41.9218L35.4792 47.8353V36.0107L23.71 41.9218Z" fill="#FCB415"/>
<path fill-rule="evenodd" clip-rule="evenodd" d="M23.7363 29.9023L35.5081 35.8158V23.9888L23.7363 29.9023Z" fill="#B84480"/>
<path fill-rule="evenodd" clip-rule="evenodd" d="M35.5898 23.9888V35.8158L47.3616 29.9023L35.5898 23.9888Z" fill="#A0366D"/>
<path fill-rule="evenodd" clip-rule="evenodd" d="M35.5898 23.9047L47.3616 29.8182V17.9937L35.5898 23.9047Z" fill="#B84480"/>
<path fill-rule="evenodd" clip-rule="evenodd" d="M35.5898 11.9949V23.8219L47.3616 17.9084L35.5898 11.9949Z" fill="#A0366D"/>
<path fill-rule="evenodd" clip-rule="evenodd" d="M23.7363 17.9084L35.5081 23.8219V11.9949L23.7363 17.9084Z" fill="#B84480"/>
<path fill-rule="evenodd" clip-rule="evenodd" d="M23.7363 5.99878V17.8233L35.5081 11.9098L23.7363 5.99878Z" fill="#A0366D"/>
<path fill-rule="evenodd" clip-rule="evenodd" d="M11.8828 11.9098L23.6521 17.8233V5.99878L11.8828 11.9098Z" fill="#B84480"/>
<path fill-rule="evenodd" clip-rule="evenodd" d="M11.8828 0V11.827L23.6521 5.91352L11.8828 0Z" fill="#A0366D"/>
</svg>
