<svg width="195" height="60" fill="none" xmlns="http://www.w3.org/2000/svg"><path d="M47.89 38.56v8.54h4.58v.95H46.8v-9.49h1.1ZM60.54 44.63h-6.13c.05.88.36 1.54.93 1.98.57.44 1.28.67 2.12.67 1.02 0 1.86-.19 2.54-.55l.3.92c-.78.36-1.75.54-2.9.54-1.3 0-2.29-.34-3-1.01a3.64 3.64 0 0 1-1.05-2.77c0-1.13.37-2.04 1.12-2.75.75-.7 1.7-1.05 2.83-1.05 1.11 0 1.95.27 2.51.81.57.55.85 1.27.85 2.18 0 .37-.04.72-.12 1.03Zm-6.11-.9h5.22c0-.79-.2-1.36-.59-1.7-.4-.35-1.02-.52-1.88-.52-.7 0-1.31.2-1.84.6-.53.39-.84.93-.91 1.63ZM64.15 44.25l-2.53-3.5h1.21L65 43.83h.08l2.17-3.08h1.26l-2.54 3.46 2.76 3.83h-1.26l-2.39-3.35H65l-2.4 3.35h-1.2l2.75-3.79ZM74.35 48.05v-9.49h5.94v.94h-4.84v3.2h4.36v.9h-4.36v4.45h-1.1ZM81.75 48.04v-7.3h1.05v7.3h-1.05Zm-.08-10.16a.78.78 0 0 1 .6-.24.8.8 0 0 1 .61.24c.15.16.23.36.23.6 0 .21-.08.41-.23.58a.8.8 0 0 1-.6.24.79.79 0 0 1-.6-.24.83.83 0 0 1-.24-.59c0-.23.08-.43.23-.59ZM84.7 48.04v-7.3h.88l.11 1.33c.64-.98 1.63-1.46 2.95-1.46.98 0 1.74.27 2.26.81.53.55.8 1.33.8 2.37v4.25h-1.06v-4.27c0-1.5-.67-2.26-2-2.26-.67 0-1.24.13-1.7.4-.45.25-.85.66-1.2 1.22v4.91H84.7ZM94.26 42.08l-.28-.88c.94-.4 1.93-.6 3-.6 1.05 0 1.83.2 2.33.6.5.4.75 1.03.75 1.9v3.17c0 .39.06.66.2.8.13.14.4.22.77.23v.74c-.26.1-.53.15-.8.15-.3 0-.53-.1-.7-.28-.16-.19-.26-.51-.3-.97A4.2 4.2 0 0 1 96 48.19c-.85 0-1.48-.19-1.9-.56a2.06 2.06 0 0 1-.63-1.61c0-.64.2-1.2.63-1.7 1.21-.36 2.85-.58 4.91-.64v-.54c0-.57-.15-.99-.46-1.24-.31-.25-.86-.38-1.65-.38-.87 0-1.76.19-2.64.56ZM99 46.15v-1.7c-1.64.03-3 .19-4.08.47-.25.3-.38.63-.38 1.01 0 .9.52 1.35 1.54 1.35 1.2 0 2.17-.38 2.92-1.13ZM102.23 48.04v-7.3h.88l.11 1.33c.64-.98 1.63-1.46 2.95-1.46.98 0 1.73.27 2.26.81.53.55.8 1.33.8 2.37v4.25h-1.06v-4.27c0-1.5-.67-2.26-2-2.26-.67 0-1.24.13-1.7.4-.45.25-.85.66-1.2 1.22v4.91h-1.04ZM117.35 41.09l-.47.83a4.54 4.54 0 0 0-2.02-.4 3.3 3.3 0 0 0-2.3.74c-.54.5-.82 1.22-.82 2.15 0 .85.28 1.53.83 2.06a2.9 2.9 0 0 0 2.08.79c.93 0 1.75-.18 2.45-.53l.35.87c-.8.4-1.77.6-2.87.6a3.84 3.84 0 0 1-2.84-1.07c-.7-.7-1.06-1.6-1.06-2.69 0-1.13.39-2.05 1.16-2.76a4.17 4.17 0 0 1 2.94-1.07c1.04 0 1.9.16 2.57.48ZM125.45 44.63h-6.13c.05.88.36 1.54.93 1.98.57.44 1.27.67 2.12.67 1.01 0 1.86-.19 2.54-.55l.3.92a7 7 0 0 1-2.9.54c-1.3 0-2.3-.34-3-1.01a3.64 3.64 0 0 1-1.06-2.77 3.6 3.6 0 0 1 1.13-2.75 3.96 3.96 0 0 1 2.83-1.05c1.1 0 1.95.27 2.51.81.56.55.84 1.27.84 2.18 0 .37-.03.72-.11 1.03Zm-6.12-.9h5.23c0-.79-.2-1.36-.6-1.7-.39-.35-1.01-.52-1.87-.52a3 3 0 0 0-1.84.6c-.54.39-.84.93-.92 1.63ZM130.75 48.05l4.1-9.49h1.28l4.1 9.49h-1.16l-1.36-3.2h-4.5l-1.34 3.2h-1.12Zm4.81-8.36h-.2l-1.78 4.25h3.75l-1.77-4.25ZM146.69 41.02l-.37.88a5.68 5.68 0 0 0-2.17-.4c-1.35 0-2.02.35-2.02 1.07 0 .37.17.64.5.8.33.16.86.29 1.6.39 1.9.25 2.85 1.01 2.85 2.29 0 .72-.3 1.26-.9 1.61-.6.36-1.44.53-2.53.53a6.54 6.54 0 0 1-2.56-.43l.28-.94c.7.3 1.44.46 2.22.46 1.65 0 2.48-.42 2.48-1.25 0-.4-.17-.7-.5-.9-.34-.2-.9-.34-1.69-.42-1.84-.2-2.77-.9-2.77-2.08 0-.6.26-1.1.78-1.46a3.87 3.87 0 0 1 2.27-.56c.95 0 1.8.14 2.53.41ZM153.76 41.02l-.36.88a5.68 5.68 0 0 0-2.18-.4c-1.34 0-2.01.35-2.01 1.07 0 .37.16.64.5.8.33.16.86.29 1.6.39 1.9.25 2.85 1.01 2.85 2.29 0 .72-.3 1.26-.9 1.61-.6.36-1.44.53-2.53.53a6.54 6.54 0 0 1-2.56-.43l.28-.94c.7.3 1.44.46 2.22.46 1.66 0 2.48-.42 2.48-1.25 0-.4-.17-.7-.5-.9-.34-.2-.9-.34-1.69-.42-1.85-.2-2.77-.9-2.77-2.08 0-.6.26-1.1.78-1.46a3.88 3.88 0 0 1 2.27-.56c.95 0 1.8.14 2.52.41ZM155.54 48.04v-7.3h1.06v7.3h-1.06Zm-.07-10.16a.8.8 0 0 1 .6-.24c.25 0 .45.08.6.24.16.16.23.36.23.6 0 .21-.08.41-.23.58a.79.79 0 0 1-.6.24.8.8 0 0 1-.6-.24.84.84 0 0 1-.23-.59c0-.23.07-.43.22-.59ZM163.79 41.02l-.36.88a5.67 5.67 0 0 0-2.18-.4c-1.34 0-2.01.35-2.01 1.07 0 .37.16.64.5.8.33.16.86.29 1.6.39 1.9.25 2.85 1.01 2.85 2.29 0 .72-.3 1.26-.9 1.61-.6.36-1.44.53-2.53.53a6.54 6.54 0 0 1-2.56-.43l.28-.94c.7.3 1.44.46 2.22.46 1.65 0 2.48-.42 2.48-1.25 0-.4-.17-.7-.5-.9-.34-.2-.9-.34-1.69-.42-1.85-.2-2.77-.9-2.77-2.08 0-.6.26-1.1.78-1.46a3.87 3.87 0 0 1 2.27-.56c.95 0 1.79.14 2.52.41ZM166.1 41.68l-1.19-.16v-.42l.9-.56 1.02-1.59.32.05v1.75h2.99l-.04.93-2.95-.1v3.98c0 1.13.5 1.7 1.53 1.7.59 0 1.13-.15 1.62-.46l.4.84c-.6.37-1.3.55-2.13.55-1.65 0-2.47-.87-2.47-2.61v-3.9ZM172.54 42.08l-.28-.88c.93-.4 1.93-.6 3-.6 1.05 0 1.83.2 2.32.6.5.4.75 1.03.75 1.9v3.17c0 .39.06.66.2.8s.4.22.78.23v.74c-.27.1-.53.15-.8.15-.3 0-.54-.1-.7-.28-.16-.19-.26-.51-.3-.97a4.2 4.2 0 0 1-3.24 1.25c-.84 0-1.48-.19-1.9-.56a2.06 2.06 0 0 1-.62-1.61c0-.64.2-1.2.62-1.7 1.22-.36 2.86-.58 4.92-.64v-.54c0-.57-.15-.99-.46-1.24-.32-.25-.86-.38-1.65-.38-.88 0-1.76.19-2.64.56Zm4.75 4.07v-1.7c-1.64.03-3 .19-4.08.47-.26.3-.39.63-.39 1.01 0 .9.52 1.35 1.55 1.35 1.2 0 2.16-.38 2.92-1.13ZM180.5 48.04v-7.3h.88l.12 1.33c.64-.98 1.62-1.46 2.94-1.46.99 0 1.74.27 2.27.81.52.55.78 1.33.78 2.37v4.25h-1.04v-4.27c0-1.5-.67-2.26-2-2.26-.68 0-1.24.13-1.7.4-.45.25-.85.66-1.2 1.22v4.91h-1.05ZM189.63 41.68l-1.19-.16v-.42l.91-.56 1-1.59.33.05v1.75h3l-.06.93-2.94-.1v3.98c0 1.13.51 1.7 1.53 1.7.58 0 1.12-.15 1.62-.46l.4.84c-.6.37-1.31.55-2.14.55-1.64 0-2.46-.87-2.46-2.61v-3.9ZM47.4 58.88v-5.04h.57v2.14h.95a2.44 2.44 0 0 1 2.5-2.23c.75 0 1.36.24 1.83.73.47.5.7 1.12.7 1.88 0 .76-.23 1.38-.7 1.88-.47.49-1.08.74-1.82.74-.73 0-1.33-.24-1.8-.71a2.59 2.59 0 0 1-.73-1.8h-.93v2.4h-.58Zm2.64-4.07c-.38.38-.56.9-.56 1.55s.18 1.16.56 1.55c.37.38.84.57 1.39.57.55 0 1.01-.2 1.39-.57.37-.39.56-.9.56-1.55s-.19-1.17-.56-1.55a1.87 1.87 0 0 0-1.4-.57c-.54 0-1 .19-1.38.57ZM57.1 58.88v-5.04h1.7c.57 0 1.04.14 1.4.42.37.27.55.65.55 1.13 0 .5-.18.88-.54 1.16-.36.28-.83.42-1.41.42h-1.13v1.9h-.58Zm1.58-4.54h-1v2.13h1c1 0 1.5-.36 1.5-1.08 0-.7-.5-1.05-1.5-1.05ZM63.9 58.88v-5.04h.56v4.23h.05l3.21-4.23h.58v5.04h-.58v-4.15h-.04l-3.18 4.15h-.6ZM72.56 55.43v-1.59h3.39v4.53h.56L76.44 60H76l-.1-1.12h-3.97L71.8 60h-.44v-1.63c.25-.07.45-.22.62-.44.39-.5.58-1.33.58-2.5Zm2.82 2.94v-4.03h-2.25v1.08c0 1.42-.29 2.4-.86 2.95h3.1ZM79.56 58.88v-5.04h.58v4.23h.04l3.22-4.23h.57v5.04h-.57v-4.15h-.05l-3.18 4.15h-.6ZM91.06 53.84v5.04h-.58V57.2c-.45.07-.85.1-1.2.1-.67 0-1.2-.16-1.55-.48-.37-.33-.55-.82-.55-1.49v-1.5h.58v1.44c0 .52.13.9.39 1.14.26.24.69.36 1.3.36.39 0 .74-.02 1.03-.07v-2.87h.58ZM97.66 58.88h-3.27v-5.04h3.15v.5h-2.57V56h2.32v.5h-2.32v1.87h2.69v.5ZM104.91 54.25l-.24.47a2.62 2.62 0 0 0-1.48-.48 2.06 2.06 0 0 0-2.12 2.11 2 2 0 0 0 .59 1.54c.4.37.9.55 1.52.55.32 0 .6-.03.83-.1.23-.06.47-.18.74-.35l.17.51a3.3 3.3 0 0 1-1.83.48 2.7 2.7 0 0 1-1.8-.63c-.25-.21-.45-.49-.59-.83a2.94 2.94 0 0 1-.22-1.17c0-.76.27-1.39.8-1.87a2.7 2.7 0 0 1 1.9-.74c.68 0 1.26.17 1.73.51ZM108.02 58.88v-5.04h.57v1.9h1.22l.85-1.35c.25-.42.59-.63 1-.63.16 0 .31.02.46.06l-.1.5a1.3 1.3 0 0 0-.26-.02c-.27 0-.5.15-.69.45l-.77 1.2 1.89 2.93h-.66l-1.7-2.65h-1.24v2.65h-.57ZM114.94 58.88l2.17-5.04h.69l2.16 5.04h-.61l-.72-1.7h-2.4l-.7 1.7h-.6Zm2.55-4.44h-.1l-.95 2.26h1.99l-.94-2.26ZM124.8 53.84h1.86v5.04h-.58v-2.05h-1.33l-1.37 2.05h-.67l1.5-2.12a1.6 1.6 0 0 1-.92-.5 1.33 1.33 0 0 1-.35-.92c0-.46.17-.82.52-1.09.34-.27.79-.4 1.34-.4Zm1.28 2.5v-2.01h-1.25c-.4 0-.71.08-.95.25-.24.16-.36.42-.36.76 0 .35.12.6.36.76.24.16.56.24.97.24h1.23ZM134.6 58.88v-5.04h.57v1.9h1.22l.85-1.35c.25-.42.58-.63 1-.63.16 0 .31.02.46.06l-.1.5a1.24 1.24 0 0 0-.26-.02c-.27 0-.5.15-.7.45l-.77 1.2 1.9 2.93h-.67l-1.69-2.65h-1.24v2.65h-.57ZM142.52 54.82c-.4.38-.62.9-.62 1.54s.21 1.15.62 1.54c.41.38.91.58 1.5.58s1.09-.2 1.5-.58c.4-.39.61-.9.61-1.54a2.03 2.03 0 0 0-2.11-2.12c-.59 0-1.09.19-1.5.58Zm4.2 1.54c0 .77-.26 1.4-.78 1.88-.5.5-1.15.74-1.92.74-.78 0-1.42-.25-1.93-.73a2.48 2.48 0 0 1-.77-1.89c0-.77.26-1.4.78-1.88a2.68 2.68 0 0 1 1.92-.74c.77 0 1.42.25 1.93.73.5.49.76 1.12.76 1.89ZM149.85 58.88v-5.04h.8l1.64 2.42 1.64-2.42h.8v5.04h-.57v-2.86l.01-1.54h-.07L152.37 57h-.2l-1.7-2.52h-.07l.01 1.54v2.86h-.56ZM158.06 58.88v-5.04h3.96v5.04h-.58v-4.54h-2.8v4.54h-.58ZM165.04 58.88l2.17-5.04h.69l2.16 5.04h-.6l-.72-1.7h-2.4l-.7 1.7h-.6Zm2.56-4.44h-.11l-.95 2.26h2l-.94-2.26ZM176.6 56v-2.16h.59v5.04h-.58v-2.39h-2.95v2.39h-.58v-5.04h.58V56h2.95ZM180.52 58.88v-5.04h.57v4.23h.05l3.21-4.23h.57v5.04h-.57v-4.15h-.05l-3.17 4.15h-.61ZM190.07 53.84h1.86v5.04h-.58v-2.05h-1.32l-1.37 2.05h-.68l1.5-2.12a1.59 1.59 0 0 1-.92-.5 1.32 1.32 0 0 1-.35-.92c0-.46.17-.82.52-1.09.34-.27.79-.4 1.34-.4Zm1.28 2.5v-2.01h-1.25c-.4 0-.72.08-.95.25-.24.16-.36.42-.36.76 0 .35.12.6.36.76.23.16.56.24.97.24h1.23Z" fill="#fff"/><path fill-rule="evenodd" clip-rule="evenodd" d="M11.85 12.02v11.83l11.77-5.92-11.77-5.9Z" fill="#FAA819"/><path fill-rule="evenodd" clip-rule="evenodd" d="m0 17.93 11.77 5.92V12.02L0 17.93Z" fill="#FCB415"/><path fill-rule="evenodd" clip-rule="evenodd" d="M0 18.02v11.82l11.77-5.9L0 18.01Z" fill="#FAA819"/><path fill-rule="evenodd" clip-rule="evenodd" d="m0 29.93 11.77 5.91V24.02L0 29.92Z" fill="#FCB415"/><path fill-rule="evenodd" clip-rule="evenodd" d="M11.85 24.02v11.82l11.77-5.91-11.77-5.91Z" fill="#FAA819"/><path fill-rule="evenodd" clip-rule="evenodd" d="m11.85 35.92 11.77 5.92V30l-11.77 5.91Z" fill="#FCB415"/><path fill-rule="evenodd" clip-rule="evenodd" d="M23.71 30.01v11.83l11.77-5.92-11.77-5.9Z" fill="#FAA819"/><path fill-rule="evenodd" clip-rule="evenodd" d="m23.71 41.92 11.77 5.92V36L23.7 41.92Z" fill="#FCB415"/><path fill-rule="evenodd" clip-rule="evenodd" d="m23.74 29.9 11.77 5.92V23.99L23.74 29.9Z" fill="#B84480"/><path fill-rule="evenodd" clip-rule="evenodd" d="M35.59 23.99v11.83l11.77-5.92L35.6 24Z" fill="#A0366D"/><path fill-rule="evenodd" clip-rule="evenodd" d="m35.59 23.9 11.77 5.92V17.99L35.6 23.9Z" fill="#B84480"/><path fill-rule="evenodd" clip-rule="evenodd" d="M35.59 12v11.82l11.77-5.91-11.77-5.92Z" fill="#A0366D"/><path fill-rule="evenodd" clip-rule="evenodd" d="m23.74 17.9 11.77 5.92V12l-11.77 5.92Z" fill="#B84480"/><path fill-rule="evenodd" clip-rule="evenodd" d="M23.74 6v11.82l11.77-5.91L23.74 6Z" fill="#A0366D"/><path fill-rule="evenodd" clip-rule="evenodd" d="m11.88 11.91 11.77 5.91V6L11.88 11.9Z" fill="#B84480"/><path fill-rule="evenodd" clip-rule="evenodd" d="M11.88 0v11.83L23.65 5.9 11.88 0Z" fill="#A0366D"/></svg>