<svg width="195" height="60" viewBox="0 0 195 60" fill="none" xmlns="http://www.w3.org/2000/svg">
<path d="M47.8883 38.561V47.0986H52.4709V48.0455H46.7949V38.561H47.8883Z" fill="white"/>
<path d="M60.5417 44.6341H54.4106C54.4594 45.5095 54.7681 46.1686 55.3365 46.6115C55.9085 47.0545 56.6165 47.2759 57.4605 47.2759C58.4754 47.2759 59.3228 47.0946 60.0029 46.7319L60.3063 47.6526C59.5181 48.0118 58.5503 48.1914 57.4029 48.1914C56.109 48.1914 55.1099 47.8531 54.4054 47.1765C53.7009 46.5034 53.3486 45.5827 53.3486 44.4144C53.3486 43.2844 53.7218 42.3672 54.4681 41.6627C55.218 40.9582 56.1631 40.606 57.3035 40.606C58.4126 40.606 59.2496 40.878 59.8146 41.422C60.3761 41.9661 60.6568 42.6915 60.6568 43.5983C60.6568 43.9749 60.6185 44.3202 60.5417 44.6341ZM54.4263 43.7395H59.6524C59.6524 42.9444 59.4554 42.3742 59.0613 42.0289C58.6672 41.6836 58.0412 41.511 57.1832 41.511C56.4822 41.511 55.8667 41.708 55.3365 42.1021C54.8064 42.4962 54.503 43.042 54.4263 43.7395Z" fill="white"/>
<path d="M64.1475 44.2516L61.6208 40.7466H62.8345L64.995 43.8278H65.084L67.255 40.7466H68.5105L65.9733 44.2097L68.7302 48.0443H67.4747L65.084 44.691H64.995L62.5991 48.0443H61.3906L64.1475 44.2516Z" fill="white"/>
<path d="M74.3486 48.0455V38.561H80.2914V39.4974H75.4472V42.6938H79.8102V43.6093H75.4472V48.0455H74.3486Z" fill="white"/>
<path d="M81.751 48.0448V40.7471H82.8025V48.0448H81.751ZM81.6726 37.8803C81.8225 37.7199 82.0231 37.6396 82.2742 37.6396C82.5288 37.6396 82.731 37.7199 82.881 37.8803C83.031 38.0407 83.106 38.2378 83.106 38.4714C83.106 38.6946 83.0292 38.8899 82.8758 39.0573C82.7188 39.2213 82.5183 39.3032 82.2742 39.3032C82.0335 39.3032 81.8347 39.2213 81.6778 39.0573C81.5209 38.8899 81.4424 38.6946 81.4424 38.4714C81.4424 38.2378 81.5191 38.0407 81.6726 37.8803Z" fill="white"/>
<path d="M84.6963 48.0449V40.7472H85.5752L85.6902 42.0655C86.332 41.0925 87.3155 40.606 88.6407 40.606C89.6242 40.606 90.3775 40.878 90.9007 41.422C91.4273 41.9661 91.6906 42.7543 91.6906 43.7866V48.0449H90.6391V43.7709C90.6391 42.2643 89.973 41.511 88.6407 41.511C87.9676 41.511 87.4026 41.6418 86.9458 41.9033C86.4889 42.1649 86.0896 42.5729 85.7478 43.1275V48.0449H84.6963Z" fill="white"/>
<path d="M94.2587 42.076L93.9814 41.2023C94.9161 40.8047 95.9135 40.606 96.9738 40.606C98.034 40.606 98.8117 40.8047 99.3069 41.2023C99.8057 41.5999 100.055 42.2329 100.055 43.1013V46.2663C100.055 46.6569 100.123 46.9254 100.259 47.0719C100.395 47.2149 100.651 47.2916 101.028 47.3021V48.0449C100.766 48.1426 100.5 48.1914 100.228 48.1914C99.9277 48.1914 99.6975 48.0973 99.5371 47.9089C99.3732 47.7206 99.2721 47.3963 99.2337 46.9359C98.456 47.7729 97.3766 48.1914 95.9955 48.1914C95.148 48.1914 94.515 48.0031 94.0965 47.6264C93.678 47.2463 93.4688 46.7109 93.4688 46.0204C93.4688 45.3787 93.678 44.8137 94.0965 44.3254C95.3137 43.9558 96.9528 43.7413 99.014 43.682V43.1432C99.014 42.5677 98.8588 42.1544 98.5484 41.9033C98.238 41.6487 97.6887 41.5214 96.9005 41.5214C96.0251 41.5214 95.1445 41.7063 94.2587 42.076ZM99.014 46.1512V44.4562C97.3713 44.4841 96.0094 44.6393 94.9283 44.9218C94.6772 45.2148 94.5516 45.5513 94.5516 45.9315C94.5516 46.8278 95.0661 47.2759 96.0949 47.2759C97.2841 47.2759 98.2572 46.901 99.014 46.1512Z" fill="white"/>
<path d="M102.227 48.0449V40.7472H103.105L103.221 42.0655C103.862 41.0925 104.846 40.606 106.171 40.606C107.151 40.606 107.904 40.878 108.431 41.422C108.958 41.9661 109.221 42.7543 109.221 43.7866V48.0449H108.169V43.7709C108.169 42.2643 107.503 41.511 106.171 41.511C105.498 41.511 104.933 41.6418 104.476 41.9033C104.019 42.1649 103.62 42.5729 103.278 43.1275V48.0449H102.227Z" fill="white"/>
<path d="M117.349 41.0872L116.878 41.919C116.323 41.647 115.652 41.511 114.864 41.511C113.884 41.511 113.118 41.7603 112.567 42.2591C112.016 42.7613 111.741 43.4797 111.741 44.4144C111.741 45.2584 112.018 45.9437 112.572 46.4703C113.127 46.9969 113.819 47.2602 114.649 47.2602C115.58 47.2602 116.397 47.0841 117.098 46.7319L117.448 47.595C116.642 47.9926 115.685 48.1914 114.576 48.1914C113.387 48.1914 112.44 47.8392 111.735 47.1347C111.031 46.4302 110.679 45.5321 110.679 44.4405C110.679 43.3141 111.068 42.3933 111.845 41.6784C112.623 40.9634 113.601 40.606 114.78 40.606C115.819 40.606 116.676 40.7664 117.349 41.0872Z" fill="white"/>
<path d="M125.448 44.6341H119.317C119.366 45.5095 119.676 46.1686 120.248 46.6115C120.817 47.0545 121.523 47.2759 122.367 47.2759C123.382 47.2759 124.229 47.0946 124.909 46.7319L125.218 47.6526C124.43 48.0118 123.46 48.1914 122.309 48.1914C121.015 48.1914 120.016 47.8531 119.312 47.1765C118.607 46.5034 118.255 45.5827 118.255 44.4144C118.255 43.2844 118.63 42.3672 119.38 41.6627C120.126 40.9582 121.069 40.606 122.21 40.606C123.319 40.606 124.156 40.878 124.721 41.422C125.282 41.9661 125.563 42.6915 125.563 43.5983C125.563 43.9749 125.525 44.3202 125.448 44.6341ZM119.333 43.7395H124.559C124.559 42.9444 124.362 42.3742 123.968 42.0289C123.573 41.6836 122.947 41.511 122.089 41.511C121.392 41.511 120.778 41.708 120.248 42.1021C119.714 42.4962 119.409 43.042 119.333 43.7395Z" fill="white"/>
<path d="M130.747 48.0455L134.848 38.561H136.13L140.221 48.0455H139.065L137.71 44.8491H133.201L131.872 48.0455H130.747ZM135.565 39.6858H135.361L133.577 43.9441H137.328L135.565 39.6858Z" fill="white"/>
<path d="M146.687 41.0245L146.321 41.9033C145.658 41.6313 144.933 41.4953 144.145 41.4953C142.802 41.4953 142.131 41.8545 142.131 42.5729C142.131 42.9426 142.296 43.2077 142.628 43.3681C142.959 43.5285 143.494 43.6576 144.234 43.7552C146.131 44.0098 147.079 44.7736 147.079 46.0466C147.079 46.7685 146.779 47.3073 146.18 47.6631C145.583 48.0153 144.739 48.1914 143.648 48.1914C142.626 48.1914 141.775 48.0467 141.095 47.7572L141.372 46.8208C142.073 47.1242 142.812 47.2759 143.59 47.2759C145.243 47.2759 146.07 46.8609 146.07 46.0309C146.07 45.6333 145.902 45.3351 145.568 45.1363C145.233 44.9375 144.671 44.7945 143.883 44.7073C142.035 44.5016 141.11 43.8093 141.11 42.6305C141.11 42.0271 141.37 41.5389 141.89 41.1657C142.41 40.7925 143.166 40.606 144.16 40.606C145.112 40.606 145.955 40.7455 146.687 41.0245Z" fill="white"/>
<path d="M153.765 41.0245L153.399 41.9033C152.736 41.6313 152.011 41.4953 151.223 41.4953C149.88 41.4953 149.209 41.8545 149.209 42.5729C149.209 42.9426 149.374 43.2077 149.706 43.3681C150.037 43.5285 150.572 43.6576 151.312 43.7552C153.209 44.0098 154.158 44.7736 154.158 46.0466C154.158 46.7685 153.859 47.3073 153.263 47.6631C152.663 48.0153 151.817 48.1914 150.726 48.1914C149.704 48.1914 148.853 48.0467 148.173 47.7572L148.45 46.8208C149.151 47.1242 149.89 47.2759 150.668 47.2759C152.325 47.2759 153.153 46.8609 153.153 46.0309C153.153 45.6333 152.984 45.3351 152.646 45.1363C152.311 44.9375 151.749 44.7945 150.961 44.7073C149.113 44.5016 148.189 43.8093 148.189 42.6305C148.189 42.0271 148.448 41.5389 148.968 41.1657C149.491 40.7925 150.248 40.606 151.238 40.606C152.194 40.606 153.036 40.7455 153.765 41.0245Z" fill="white"/>
<path d="M155.544 48.0448V40.7471H156.595V48.0448H155.544ZM155.465 37.8803C155.615 37.7199 155.817 37.6396 156.072 37.6396C156.323 37.6396 156.524 37.7199 156.674 37.8803C156.827 38.0407 156.904 38.2378 156.904 38.4714C156.904 38.6946 156.825 38.8899 156.668 39.0573C156.511 39.2213 156.313 39.3032 156.072 39.3032C155.828 39.3032 155.627 39.2213 155.47 39.0573C155.317 38.8899 155.24 38.6946 155.24 38.4714C155.24 38.2378 155.315 38.0407 155.465 37.8803Z" fill="white"/>
<path d="M163.789 41.0245L163.428 41.9033C162.766 41.6313 162.04 41.4953 161.252 41.4953C159.909 41.4953 159.238 41.8545 159.238 42.5729C159.238 42.9426 159.404 43.2077 159.735 43.3681C160.066 43.5285 160.602 43.6576 161.341 43.7552C163.238 44.0098 164.187 44.7736 164.187 46.0466C164.187 46.7685 163.887 47.3073 163.287 47.6631C162.691 48.0153 161.847 48.1914 160.755 48.1914C159.733 48.1914 158.882 48.0467 158.202 47.7572L158.479 46.8208C159.18 47.1242 159.92 47.2759 160.698 47.2759C162.351 47.2759 163.177 46.8609 163.177 46.0309C163.177 45.6333 163.01 45.3351 162.675 45.1363C162.34 44.9375 161.779 44.7945 160.99 44.7073C159.142 44.5016 158.218 43.8093 158.218 42.6305C158.218 42.0271 158.478 41.5389 158.997 41.1657C159.517 40.7925 160.274 40.606 161.268 40.606C162.22 40.606 163.06 40.7455 163.789 41.0245Z" fill="white"/>
<path d="M166.096 41.6829L164.914 41.5207V41.097L165.819 40.5425L166.829 38.9521L167.148 38.9992V40.7465H170.14L170.098 41.6829L167.148 41.5783V45.5646C167.148 46.6945 167.659 47.2595 168.681 47.2595C169.267 47.2595 169.807 47.1078 170.302 46.8044L170.695 47.6362C170.102 48.0059 169.392 48.1907 168.566 48.1907C166.919 48.1907 166.096 47.3206 166.096 45.5803V41.6829Z" fill="white"/>
<path d="M172.536 42.076L172.259 41.2023C173.193 40.8047 174.191 40.606 175.251 40.606C176.311 40.606 177.089 40.8047 177.584 41.2023C178.08 41.5999 178.327 42.2329 178.327 43.1013V46.2663C178.327 46.6569 178.395 46.9254 178.531 47.0719C178.667 47.2149 178.925 47.2916 179.305 47.3021V48.0449C179.044 48.1426 178.777 48.1914 178.505 48.1914C178.202 48.1914 177.97 48.0973 177.809 47.9089C177.649 47.7206 177.549 47.3963 177.511 46.9359C176.733 47.7729 175.654 48.1914 174.273 48.1914C173.425 48.1914 172.792 48.0031 172.374 47.6264C171.955 47.2463 171.746 46.7109 171.746 46.0204C171.746 45.3787 171.955 44.8137 172.374 44.3254C173.591 43.9558 175.23 43.7413 177.291 43.682V43.1432C177.291 42.5677 177.136 42.1544 176.826 41.9033C176.515 41.6487 175.966 41.5214 175.178 41.5214C174.302 41.5214 173.422 41.7063 172.536 42.076ZM177.291 46.1512V44.4562C175.649 44.4841 174.287 44.6393 173.206 44.9218C172.951 45.2148 172.824 45.5513 172.824 45.9315C172.824 46.8278 173.34 47.2759 174.372 47.2759C175.561 47.2759 176.535 46.901 177.291 46.1512Z" fill="white"/>
<path d="M180.503 48.0449V40.7472H181.377L181.497 42.0655C182.139 41.0925 183.12 40.606 184.442 40.606C185.426 40.606 186.181 40.878 186.707 41.422C187.23 41.9661 187.492 42.7543 187.492 43.7866V48.0449H186.446V43.7709C186.446 42.2643 185.778 41.511 184.442 41.511C183.773 41.511 183.209 41.6418 182.752 41.9033C182.296 42.1649 181.896 42.5729 181.554 43.1275V48.0449H180.503Z" fill="white"/>
<path d="M189.628 41.6829L188.445 41.5207V41.097L189.35 40.5425L190.355 38.9521L190.679 38.9992V40.7465H193.671L193.624 41.6829L190.679 41.5783V45.5646C190.679 46.6945 191.19 47.2595 192.212 47.2595C192.794 47.2595 193.333 47.1078 193.828 46.8044L194.226 47.6362C193.63 48.0059 192.918 48.1907 192.092 48.1907C190.449 48.1907 189.628 47.3206 189.628 45.5803V41.6829Z" fill="white"/>
<path d="M47.3936 58.8759V53.8433H47.969V55.9777H48.9211C48.9978 55.3185 49.2646 54.7814 49.7215 54.3664C50.1784 53.9514 50.7468 53.7439 51.4269 53.7439C52.1698 53.7439 52.7784 53.9898 53.2527 54.4815C53.7235 54.9733 53.9589 55.5993 53.9589 56.3596C53.9589 57.1164 53.7235 57.7424 53.2527 58.2376C52.7784 58.7294 52.1698 58.9752 51.4269 58.9752C50.698 58.9752 50.0999 58.7398 49.6326 58.269C49.1687 57.8017 48.9229 57.2036 48.895 56.4747H47.969V58.8759H47.3936ZM50.0354 54.8111C49.6622 55.1912 49.4756 55.7074 49.4756 56.3596C49.4756 57.0083 49.6622 57.5244 50.0354 57.9081C50.412 58.2882 50.8759 58.4783 51.4269 58.4783C51.978 58.4783 52.4418 58.2882 52.8185 57.9081C53.1916 57.5244 53.3782 57.0083 53.3782 56.3596C53.3782 55.7074 53.1916 55.1912 52.8185 54.8111C52.4418 54.4275 51.978 54.2356 51.4269 54.2356C50.8759 54.2356 50.412 54.4275 50.0354 54.8111Z" fill="white"/>
<path d="M57.0918 58.8761V53.8435H58.7972C59.3692 53.8435 59.8383 53.9813 60.2044 54.2568C60.5706 54.5323 60.7537 54.9107 60.7537 55.392C60.7537 55.8872 60.5741 56.2743 60.2149 56.5533C59.8522 56.8324 59.3796 56.9719 58.7972 56.9719H57.6725V58.8761H57.0918ZM58.6821 54.3405H57.6725V56.4696H58.6821C59.6761 56.4696 60.1731 56.1104 60.1731 55.392C60.1731 54.691 59.6761 54.3405 58.6821 54.3405Z" fill="white"/>
<path d="M63.8916 58.8761V53.8435H64.4618V58.0652H64.5089L67.721 53.8435H68.2964V58.8761H67.721V54.7328H67.6791L64.5037 58.8761H63.8916Z" fill="white"/>
<path d="M72.5616 55.4286V53.8435H75.9463V58.3739H76.506L76.4433 60.0008H75.9881L75.894 58.8761H71.9234L71.7978 60.0008H71.3584V58.3739C71.606 58.2971 71.8135 58.1489 71.9809 57.9292C72.368 57.4305 72.5616 56.5969 72.5616 55.4286ZM75.3761 58.3739V54.3405H73.1318V55.4234C73.1318 56.8358 72.8441 57.8193 72.2687 58.3739H75.3761Z" fill="white"/>
<path d="M79.5615 58.8761V53.8435H80.137V58.0652H80.1841L83.3961 53.8435H83.9716V58.8761H83.3961V54.7328H83.349L80.1736 58.8761H79.5615Z" fill="white"/>
<path d="M91.059 53.8435V58.8761H90.4784V57.2125C90.025 57.2788 89.6274 57.3119 89.2856 57.3119C88.609 57.3119 88.0894 57.1497 87.7267 56.8254C87.364 56.5045 87.1826 56.011 87.1826 55.3449V53.8435H87.7633V55.2821C87.7633 55.7983 87.8923 56.1767 88.1504 56.4173C88.4085 56.658 88.8392 56.7783 89.4426 56.7783C89.8401 56.7783 90.1854 56.7556 90.4784 56.7103V53.8435H91.059Z" fill="white"/>
<path d="M97.6569 58.8761H94.3926V53.8435H97.5419V54.3405H94.9733V56.0041H97.2855V56.501H94.9733V58.3739H97.6569V58.8761Z" fill="white"/>
<path d="M104.912 54.2513L104.672 54.7169C104.197 54.3961 103.702 54.2356 103.186 54.2356C102.565 54.2356 102.056 54.4344 101.658 54.832C101.261 55.2296 101.062 55.7353 101.062 56.3491C101.062 57.0048 101.261 57.5174 101.658 57.8871C102.053 58.2568 102.558 58.4417 103.176 58.4417C103.503 58.4417 103.782 58.4103 104.013 58.3475C104.239 58.2812 104.485 58.1626 104.75 57.9918L104.918 58.5044C104.433 58.8183 103.824 58.9752 103.092 58.9752C102.75 58.9752 102.426 58.9229 102.119 58.8183C101.812 58.7102 101.535 58.5533 101.287 58.3475C101.039 58.1382 100.844 57.861 100.701 57.5157C100.555 57.1739 100.481 56.7851 100.481 56.3491C100.481 55.5853 100.745 54.9611 101.271 54.4763C101.795 53.988 102.433 53.7439 103.186 53.7439C103.863 53.7439 104.438 53.913 104.912 54.2513Z" fill="white"/>
<path d="M108.016 58.8754V53.8429H108.591V55.7419H109.815L110.657 54.3869C110.912 53.9719 111.247 53.7644 111.662 53.7644C111.819 53.7644 111.972 53.7818 112.122 53.8167L112.023 54.3242C111.939 54.3067 111.85 54.298 111.756 54.298C111.487 54.298 111.259 54.448 111.071 54.7479L110.296 55.9563L112.19 58.8754H111.526L109.836 56.2336H108.591V58.8754H108.016Z" fill="white"/>
<path d="M114.939 58.8761L117.11 53.8435H117.796L119.962 58.8761H119.349L118.628 57.1811H116.237L115.531 58.8761H114.939ZM117.492 54.4399H117.382L116.441 56.6998H118.429L117.492 54.4399Z" fill="white"/>
<path d="M124.802 53.8435H126.659V58.8761H126.078V56.8306H124.754L123.384 58.8761H122.709L124.205 56.7626C123.828 56.6894 123.523 56.5237 123.29 56.2656C123.059 56.0075 122.944 55.7006 122.944 55.3449C122.944 54.8845 123.115 54.5201 123.457 54.2516C123.802 53.9795 124.25 53.8435 124.802 53.8435ZM126.078 56.3441V54.33H124.833C124.435 54.33 124.116 54.4137 123.876 54.5811C123.635 54.745 123.515 54.9996 123.515 55.3449C123.515 55.6867 123.635 55.9378 123.876 56.0982C124.116 56.2621 124.441 56.3441 124.849 56.3441H126.078Z" fill="white"/>
<path d="M134.595 58.8754V53.8429H135.17V55.7419H136.394L137.237 54.3869C137.488 53.9719 137.822 53.7644 138.241 53.7644C138.398 53.7644 138.551 53.7818 138.701 53.8167L138.597 54.3242C138.516 54.3067 138.429 54.298 138.335 54.298C138.067 54.298 137.836 54.448 137.645 54.7479L136.87 55.9563L138.769 58.8754H138.105L136.415 56.2336H135.17V58.8754H134.595Z" fill="white"/>
<path d="M142.522 54.8163C142.111 55.2034 141.905 55.7179 141.905 56.3596C141.905 56.9978 142.111 57.5105 142.522 57.8976C142.934 58.2847 143.432 58.4783 144.018 58.4783C144.608 58.4783 145.108 58.2847 145.52 57.8976C145.928 57.5105 146.132 56.9978 146.132 56.3596C146.132 55.7179 145.928 55.2034 145.52 54.8163C145.108 54.4292 144.608 54.2356 144.018 54.2356C143.432 54.2356 142.934 54.4292 142.522 54.8163ZM146.713 56.3596C146.713 57.1268 146.456 57.7546 145.944 58.2429C145.431 58.7311 144.789 58.9752 144.018 58.9752C143.244 58.9752 142.602 58.7329 142.093 58.2481C141.581 57.7633 141.324 57.1338 141.324 56.3596C141.324 55.5888 141.582 54.9611 142.098 54.4763C142.611 53.988 143.251 53.7439 144.018 53.7439C144.793 53.7439 145.436 53.9863 145.949 54.4711C146.458 54.9558 146.713 55.5853 146.713 56.3596Z" fill="white"/>
<path d="M149.85 58.8761V53.8435H150.655L152.287 56.2604L153.93 53.8435H154.725V58.8761H154.155V56.0197L154.171 54.4765H154.097L152.371 57.0032H152.162L150.467 54.4765H150.404L150.415 56.0197V58.8761H149.85Z" fill="white"/>
<path d="M158.057 58.8761V53.8435H162.017V58.8761H161.436V54.3405H158.637V58.8761H158.057Z" fill="white"/>
<path d="M165.043 58.8761L167.214 53.8435H167.899L170.065 58.8761H169.453L168.736 57.1811H166.34L165.639 58.8761H165.043ZM167.596 54.4399H167.486L166.544 56.6998H168.532L167.596 54.4399Z" fill="white"/>
<path d="M176.609 55.9936V53.8435H177.19V58.8761H176.609V56.4906H173.664V58.8761H173.083V53.8435H173.664V55.9936H176.609Z" fill="white"/>
<path d="M180.517 58.8761V53.8435H181.092V58.0652H181.139L184.351 53.8435H184.921V58.8761H184.351V54.7328H184.304L181.129 58.8761H180.517Z" fill="white"/>
<path d="M190.069 53.8435H191.931V58.8761H191.35V56.8306H190.027L188.656 58.8761H187.981L189.472 56.7626C189.096 56.6894 188.792 56.5237 188.562 56.2656C188.328 56.0075 188.212 55.7006 188.212 55.3449C188.212 54.8845 188.384 54.5201 188.73 54.2516C189.071 53.9795 189.518 53.8435 190.069 53.8435ZM191.35 56.3441V54.33H190.1C189.703 54.33 189.385 54.4137 189.148 54.5811C188.907 54.745 188.787 54.9996 188.787 55.3449C188.787 55.6867 188.907 55.9378 189.148 56.0982C189.385 56.2621 189.708 56.3441 190.116 56.3441H191.35Z" fill="white"/>
<path fill-rule="evenodd" clip-rule="evenodd" d="M11.8545 12.0222V23.8467L23.6238 17.9332L11.8545 12.0222Z" fill="#FAA819"/>
<path fill-rule="evenodd" clip-rule="evenodd" d="M0 17.9332L11.7718 23.8467V12.0222L0 17.9332Z" fill="#FCB415"/>
<path fill-rule="evenodd" clip-rule="evenodd" d="M0 18.0171V29.8416L11.7718 23.9306L0 18.0171Z" fill="#FAA819"/>
<path fill-rule="evenodd" clip-rule="evenodd" d="M0 29.9261L11.7718 35.8397V24.0151L0 29.9261Z" fill="#FCB415"/>
<path fill-rule="evenodd" clip-rule="evenodd" d="M11.8545 24.0151V35.8397L23.6238 29.9261L11.8545 24.0151Z" fill="#FAA819"/>
<path fill-rule="evenodd" clip-rule="evenodd" d="M11.8545 35.9245L23.6238 41.8355V30.011L11.8545 35.9245Z" fill="#FCB415"/>
<path fill-rule="evenodd" clip-rule="evenodd" d="M23.71 30.011V41.8355L35.4792 35.9245L23.71 30.011Z" fill="#FAA819"/>
<path fill-rule="evenodd" clip-rule="evenodd" d="M23.71 41.9218L35.4792 47.8353V36.0107L23.71 41.9218Z" fill="#FCB415"/>
<path fill-rule="evenodd" clip-rule="evenodd" d="M23.7363 29.9023L35.5081 35.8158V23.9888L23.7363 29.9023Z" fill="#B84480"/>
<path fill-rule="evenodd" clip-rule="evenodd" d="M35.5898 23.9888V35.8158L47.3616 29.9023L35.5898 23.9888Z" fill="#A0366D"/>
<path fill-rule="evenodd" clip-rule="evenodd" d="M35.5898 23.9047L47.3616 29.8182V17.9937L35.5898 23.9047Z" fill="#B84480"/>
<path fill-rule="evenodd" clip-rule="evenodd" d="M35.5898 11.9949V23.8219L47.3616 17.9084L35.5898 11.9949Z" fill="#A0366D"/>
<path fill-rule="evenodd" clip-rule="evenodd" d="M23.7363 17.9084L35.5081 23.8219V11.9949L23.7363 17.9084Z" fill="#B84480"/>
<path fill-rule="evenodd" clip-rule="evenodd" d="M23.7363 5.99878V17.8233L35.5081 11.9098L23.7363 5.99878Z" fill="#A0366D"/>
<path fill-rule="evenodd" clip-rule="evenodd" d="M11.8828 11.9098L23.6521 17.8233V5.99878L11.8828 11.9098Z" fill="#B84480"/>
<path fill-rule="evenodd" clip-rule="evenodd" d="M11.8828 0V11.827L23.6521 5.91352L11.8828 0Z" fill="#A0366D"/>
</svg>
