<svg width="206" height="150" viewBox="0 0 206 150" fill="none" xmlns="http://www.w3.org/2000/svg">
<path d="M206 -5C206 -7.76142 203.761 -10 201 -10H5C2.23858 -10 0 -7.76142 0 -5V123.388C0 125.942 1.92598 128.086 4.46616 128.359L200.466 149.406C203.422 149.723 206 147.407 206 144.434V-5Z" fill="white"/>
<path d="M201.5 1C201.5 -1.48528 199.485 -3.5 197 -3.5H9C6.51471 -3.5 4.5 -1.48528 4.5 1V121.638C4.5 123.949 6.25134 125.885 8.55138 126.115L196.551 144.952C199.201 145.217 201.5 143.137 201.5 140.474V1Z" stroke="#322C23" stroke-opacity="0.6"/>
</svg>
