<svg width="30" height="30" viewBox="0 0 30 30" fill="none" xmlns="http://www.w3.org/2000/svg">
<path d="M19 0C18.724 0 18.5 0.224003 18.5 0.499977C18.5 0.775952 18.724 0.999955 19 0.999955C24.514 0.999955 29 5.48592 29 10.9999C29 11.2759 29.224 11.4999 29.5 11.4999C29.7765 11.4999 29.9999 11.2759 29.9999 10.9999C29.9999 4.9345 25.0655 0 19 0Z" fill="#FAA819"/>
<path d="M19 3C18.724 3 18.5 3.22401 18.5 3.49999C18.5 3.77597 18.724 3.99998 19 3.99998C22.8599 3.99998 26 7.14001 26 11.0001C26 11.2761 26.224 11.5001 26.5 11.5001C26.7765 11.5001 26.9999 11.2761 26.9999 11.0001C26.9999 6.58911 23.4114 3 19 3Z" fill="#FAA819"/>
<path d="M19 6C18.724 6 18.5 6.224 18.5 6.49997C18.5 6.77594 18.724 6.99994 19 6.99994C21.2055 6.99994 23 8.79439 23 10.9999C23 11.2758 23.224 11.4998 23.5 11.4998C23.7765 11.4998 23.9999 11.2758 23.9999 10.9999C23.9999 8.24298 21.7569 6 19 6Z" fill="#FAA819"/>
<path d="M27.0565 18.7625C25.696 18.5835 24.3545 18.2496 23.0694 17.771C21.825 17.3045 20.4109 17.6055 19.4639 18.54L17.8834 20.117C14.5694 18.163 11.8009 15.4 9.84243 12.0925L11.4239 10.5145C12.3589 9.57107 12.6609 8.15855 12.1934 6.91707C11.714 5.6341 11.3795 4.29559 11.1995 2.93305C10.9599 1.24403 9.49743 -0.00647865 7.78796 2.52531e-05H3.41346C3.31145 2.52531e-05 3.20944 0.00500572 3.10848 0.0140291C2.19993 0.0960603 1.37745 0.526548 0.792917 1.22557C0.208445 1.92506 -0.0685865 2.81006 0.0144409 3.72553C0.498953 8.27955 2.07395 12.718 4.56647 16.558C6.82948 20.112 9.908 23.1845 13.4655 25.4405C17.2985 27.9215 21.7249 29.493 26.2765 29.9865C26.3795 29.9955 26.4829 30 26.5869 30C26.5899 30 26.5929 30 26.5964 30C28.4805 29.992 30.0064 28.456 29.9989 26.5775V22.218C30.0385 20.4895 28.7764 19.0045 27.0565 18.7625ZM28.999 22.2C28.999 22.204 28.999 22.2085 28.999 22.2125V26.58C29.0039 27.909 27.9245 28.995 26.593 29.0005C26.515 28.9975 26.44 28.9975 26.374 28.9915C21.987 28.5155 17.7109 26.9975 14.0045 24.5985C10.5665 22.418 7.59448 19.452 5.40747 16.017C2.99792 12.3051 1.47694 8.01805 1.00942 3.62756C0.951414 2.98655 1.14694 2.36159 1.56044 1.86705C1.97393 1.37252 2.55542 1.06807 3.19843 1.01006C3.26991 1.00356 3.34145 1.00004 3.41341 1.00004H7.79241C7.80044 1.00004 7.80841 1.00004 7.81643 1.00004C9.01444 1.00004 10.0409 1.88756 10.2084 3.06852C10.3979 4.50102 10.7504 5.914 11.2569 7.26852C11.5874 8.14648 11.3739 9.14451 10.7154 9.80902L8.86339 11.657C8.70337 11.8165 8.67038 12.0625 8.78188 12.2585C10.9009 15.9785 13.9914 19.0625 17.7179 21.177C17.9139 21.2885 18.1589 21.2545 18.3179 21.096L20.1679 19.25C20.8364 18.5906 21.8379 18.3781 22.7189 18.7081C24.0749 19.2131 25.4904 19.5656 26.9209 19.7535C28.1359 19.9245 29.0294 20.976 28.999 22.2Z" fill="#FAA819"/>
<path d="M7.50024 2H3.41374C3.37173 2 3.33025 2.00199 3.28876 2.00598C2.77929 2.05197 2.46775 2.34095 2.32777 2.50847C2.21527 2.64295 1.95828 3.00997 2.00328 3.51399C2.1923 5.2875 2.53425 7.01296 3.02076 8.64297C3.08574 8.85947 3.28425 8.99998 3.49976 8.99998C3.54728 8.99998 3.59527 8.99347 3.64326 8.979C3.90775 8.90002 4.05828 8.62152 3.97923 8.35703C3.51025 6.78603 3.18025 5.12104 2.99873 3.41655C2.98724 3.28958 3.06974 3.18007 3.09523 3.14907C3.13625 3.10009 3.22771 3.0156 3.41374 3.00007H7.49925C7.49977 3.00007 7.49977 3.00007 7.49977 3.00007C7.77575 3.00007 7.99975 2.7766 7.99975 2.50056C8.00022 2.22447 7.77622 2 7.50024 2Z" fill="#FAA819"/>
<path d="M27.4997 22C27.2237 22 26.9997 22.224 26.9997 22.5L26.9992 26.5795C26.9997 26.692 26.9567 26.798 26.8782 26.877C26.7997 26.956 26.6957 26.9995 26.5967 27L26.5507 26.999C24.8423 26.8135 23.1913 26.4845 21.6438 26.021C21.3803 25.9415 21.1008 26.092 21.0213 26.3565C20.9417 26.621 21.0923 26.8995 21.3568 26.979C22.9623 27.46 24.6737 27.8011 26.4518 27.9941C26.4928 27.9981 26.5763 28 26.5883 28C26.9668 27.9985 27.3218 27.85 27.5883 27.5816C27.8548 27.3126 28.0008 26.9555 27.9993 26.5775L27.9998 22.5C27.9998 22.224 27.7758 22 27.4997 22Z" fill="#FAA819"/>
</svg>
